<svg width="35" height="35" xmlns="http://www.w3.org/2000/svg">
  <g fill="none">
    <path d="M34.798 16.642h-16.19a.202.202 0 0 1-.203-.202V.234a.202.202 0 0 1 .202-.202h16.19A.202.202 0 0 1 35 .234V16.44a.202.202 0 0 1-.202.202" fill="#121212"/>
    <path d="M26.703 3.414c-2.777 0-5.028 2.204-5.028 4.923 0 2.72 2.251 4.924 5.028 4.924 2.776 0 5.027-2.205 5.027-4.924 0-2.72-2.25-4.923-5.027-4.923m0 1.566c1.909 0 3.462 1.506 3.462 3.357 0 1.851-1.553 3.358-3.462 3.358-1.91 0-3.463-1.507-3.463-3.358 0-1.851 1.553-3.357 3.463-3.357" fill="#FFF"/>
    <path d="M16.595 16.32a.323.323 0 0 1-.322.322H.322A.323.323 0 0 1 0 16.32V.354C0 .177.144.033.322.032h15.951c.177 0 .322.145.322.322V16.32z" fill="#121212"/>
    <path d="M9.046 3.775H7.549a.07.07 0 0 0-.07.07v8.985c0 .039.032.07.07.07h1.497a.07.07 0 0 0 .07-.07V3.844a.07.07 0 0 0-.07-.07" fill="#FFF"/>
    <path d="M0 18.68c0-.177.145-.322.322-.322h15.951c.177 0 .322.145.322.322v15.966a.323.323 0 0 1-.322.322H.322A.323.323 0 0 1 0 34.646V18.68z" fill="#121212"/>
    <path d="M8.297 21.74c-2.776 0-5.027 2.204-5.027 4.923 0 2.72 2.25 4.924 5.027 4.924s5.028-2.204 5.028-4.924c0-2.719-2.251-4.923-5.028-4.923m0 1.566c1.91 0 3.463 1.506 3.463 3.357 0 1.852-1.553 3.358-3.463 3.358-1.909 0-3.462-1.506-3.462-3.358 0-1.851 1.553-3.357 3.462-3.357" fill="#FFF"/>
    <path d="M18.405 18.68c0-.177.145-.322.322-.322h15.951c.177 0 .322.145.322.322v15.966a.323.323 0 0 1-.322.322H18.727a.323.323 0 0 1-.322-.322V18.68z" fill="#121212"/>
    <path d="M27.451 22.1h-1.497a.07.07 0 0 0-.07.07v8.986c0 .039.032.07.07.07h1.497a.07.07 0 0 0 .07-.07V22.17a.07.07 0 0 0-.07-.07" fill="#FFF"/>
  </g>
</svg>