<svg width="16" height="16" xmlns="http://www.w3.org/2000/svg">
  <path d="M13.35 13.4c1.767.667 2.65 1.533 2.65 2.6H0c0-1.067.883-1.933 2.65-2.6.267-.1.667-.192 1.2-.275.533-.083.85-.142.95-.175.567-.167.9-.317 1-.45l.05-2.05a5.61 5.61 0 0 1-.45-.9l-.35-1.6c-.233 0-.383-.2-.45-.6a5.338 5.338 0 0 0-.175-.7A2.294 2.294 0 0 1 4.3 6c0-.133.017-.242.05-.325A.316.316 0 0 1 4.5 5.5h.05c-.133-.433-.217-1.133-.25-2.1-.033-.9.283-1.692.95-2.375S6.833 0 8 0s2.083.342 2.75 1.025c.667.683.983 1.475.95 2.375l-.25 2.1c.167.033.25.2.25.5 0 .067-.1.533-.3 1.4a1.1 1.1 0 0 1-.15.4.566.566 0 0 1-.2.2h-.1c-.133.767-.25 1.283-.35 1.55l-.45.9c-.067 1.233-.05 1.917.05 2.05.1.133.433.283 1 .45.1.033.417.092.95.175.533.083.933.175 1.2.275z" fill-rule="evenodd"/>
</svg>